<svg xmlns="http://www.w3.org/2000/svg" width="308" height="199" fill="none" viewBox="0 0 308 199">
  <g filter="url(#a)">
    <ellipse cx="154" cy="95.454" fill="url(#b)" rx="150" ry="95.454"/>
    <g filter="url(#c)">
      <path fill="url(#d)" d="M287.636 95.455c0 43.68-59.831 79.09-133.636 79.09-73.805 0-133.637-35.41-133.637-79.09 0-43.681 59.832-79.091 133.637-79.091s133.636 35.41 133.636 79.09Z"/>
    </g>
    <g filter="url(#e)">
      <mask id="f" width="38" height="57" x="85" y="39" fill="#000" maskUnits="userSpaceOnUse">
        <path fill="#fff" d="M85 39h38v57H85z"/>
        <path d="M117.636 78.814h4.1c-.492 5.248-1.995 9.13-4.51 11.644-2.46 2.515-6.041 3.772-10.742 3.772-5.139 0-8.856-.957-11.152-2.87-.875-.71-1.613-1.722-2.214-3.034-.656-1.695-.984-3.69-.984-5.986V60.364H86.23v-4.92h.984c4.756 0 8.61-1.804 11.562-5.412 2.077-2.46 3.553-5.74 4.428-9.84h4.1v15.252h11.644v4.92h-11.644v21.894c0 2.077.41 3.635 1.23 4.674.875 1.039 1.968 1.558 3.28 1.558 3.061 0 5.002-3.225 5.822-9.676Z"/>
      </mask>
      <path fill="#00B2FF" d="M117.636 78.814h4.1c-.492 5.248-1.995 9.13-4.51 11.644-2.46 2.515-6.041 3.772-10.742 3.772-5.139 0-8.856-.957-11.152-2.87-.875-.71-1.613-1.722-2.214-3.034-.656-1.695-.984-3.69-.984-5.986V60.364H86.23v-4.92h.984c4.756 0 8.61-1.804 11.562-5.412 2.077-2.46 3.553-5.74 4.428-9.84h4.1v15.252h11.644v4.92h-11.644v21.894c0 2.077.41 3.635 1.23 4.674.875 1.039 1.968 1.558 3.28 1.558 3.061 0 5.002-3.225 5.822-9.676Z" shape-rendering="crispEdges"/>
      <path fill="#fff" fill-opacity=".5" d="M117.636 78.814v-1h-.881l-.111.874.992.126Zm4.1 0 .996.093.102-1.093h-1.098v1Zm-4.51 11.644-.707-.707-.008.008.715.699Zm-21.894.902.64-.768-.01-.008-.63.776Zm-2.214-3.034-.933.361.011.028.013.028.909-.417Zm-.984-27.962h1v-1h-1v1Zm-5.904 0h-1v1h1v-1Zm0-4.92v-1h-1v1h1Zm12.546-5.412-.764-.645-.005.006-.005.006.774.633Zm4.428-9.84v-1h-.809l-.169.791.978.209Zm4.1 0h1v-1h-1v1Zm0 15.252h-1v1h1v-1Zm11.644 0h1v-1h-1v1Zm0 4.92v1h1v-1h-1Zm-11.644 0v-1h-1v1h1Zm1.23 26.568-.785.62.01.012.01.012.765-.644Zm9.102-7.118h4.1v-2h-4.1v2Zm3.104-1.093c-.48 5.124-1.934 8.743-4.221 11.03l1.414 1.414c2.743-2.743 4.295-6.886 4.799-12.258l-1.992-.186Zm-4.229 11.038c-2.215 2.264-5.501 3.471-10.027 3.471v2c4.877 0 8.752-1.308 11.457-4.073l-1.43-1.398Zm-10.027 3.471c-5.058 0-8.486-.95-10.512-2.638l-1.28 1.536c2.566 2.138 6.572 3.102 11.792 3.102v-2Zm-10.521-2.646c-.727-.59-1.381-1.464-1.936-2.675l-1.818.834c.648 1.413 1.47 2.562 2.492 3.393l1.262-1.552Zm-1.912-2.619c-.602-1.554-.917-3.421-.917-5.625h-2c0 2.388.34 4.511 1.051 6.347l1.866-.722Zm-.917-5.625V60.364h-2V82.34h2Zm-1-22.976H86.23v2h5.904v-2Zm-4.904 1v-4.92h-2v4.92h2Zm-1-3.92h.984v-2h-.984v2Zm.984 0c5.049 0 9.19-1.933 12.336-5.779L98.002 49.4c-2.758 3.37-6.325 5.045-10.788 5.045v2Zm12.326-5.767c2.211-2.618 3.743-6.063 4.642-10.276l-1.956-.418c-.85 3.986-2.27 7.102-4.214 9.404l1.528 1.29Zm3.664-9.485h4.1v-2h-4.1v2Zm3.1-1v15.252h2V40.192h-2Zm1 16.252h11.644v-2h-11.644v2Zm10.644-1v4.92h2v-4.92h-2Zm1 3.92h-11.644v2h11.644v-2Zm-12.644 1v21.894h2V60.364h-2Zm0 21.894c0 2.182.426 4.003 1.445 5.294l1.57-1.24c-.621-.786-1.015-2.081-1.015-4.054h-2Zm1.465 5.318c1.057 1.255 2.426 1.914 4.045 1.914v-2c-1.005 0-1.823-.38-2.515-1.202l-1.53 1.288Zm4.045 1.914c1.966 0 3.505-1.07 4.608-2.903 1.076-1.789 1.789-4.37 2.206-7.647l-1.984-.252c-.403 3.173-1.071 5.43-1.935 6.867-.838 1.393-1.8 1.935-2.895 1.935v2Z" mask="url(#f)"/>
    </g>
    <g filter="url(#g)">
      <mask id="h" width="48" height="65" x="159" y="89" fill="#000" maskUnits="userSpaceOnUse">
        <path fill="#fff" d="M159 89h48v65h-48z"/>
        <path d="M205.086 135.666c0 4.647-2.269 8.583-6.806 11.808-4.483 3.171-10.086 4.756-16.81 4.756-1.476 0-2.487-.027-3.034-.082-2.733 0-5.303-.383-7.708-1.148-3.171-.929-5.549-2.351-7.134-4.264-2.023-2.515-3.034-5.713-3.034-9.594 0-2.023.711-3.772 2.132-5.248 1.476-1.476 3.198-2.214 5.166-2.214 2.023 0 3.772.738 5.248 2.214 1.476 1.476 2.214 3.225 2.214 5.248s-.738 3.745-2.214 5.166c-1.476 1.421-3.28 2.132-5.412 2.132 2.023 2.187 5.521 3.28 10.496 3.28 3.444 0 6.068-1.121 7.872-3.362 1.804-2.296 2.706-5.631 2.706-10.004 0-3.991-.629-6.779-1.886-8.364-1.257-1.585-3.335-2.378-6.232-2.378-.383 0-1.367.109-2.952.328-1.585.219-3.034.328-4.346.328-.547 0-1.066-.246-1.558-.738-.437-.492-.656-1.148-.656-1.968 0-.765.219-1.394.656-1.886.492-.547 1.011-.82 1.558-.82.984 0 2.323.109 4.018.328 1.695.219 2.788.328 3.28.328 4.592 0 6.888-4.592 6.888-13.776 0-3.444-.738-6.068-2.214-7.872-1.421-1.859-3.444-2.788-6.068-2.788-4.975 0-8.501 1.613-10.578 4.838.164-.055.465-.082.902-.082 2.077 0 3.827.738 5.248 2.214 1.476 1.476 2.214 3.225 2.214 5.248s-.738 3.745-2.214 5.166c-1.421 1.421-3.171 2.132-5.248 2.132-1.968 0-3.69-.711-5.166-2.132-1.421-1.476-2.132-3.225-2.132-5.248 0-11.097 6.943-16.646 20.828-16.646 6.341 0 11.289 1.503 14.842 4.51 3.663 3.007 5.494 6.615 5.494 10.824 0 3.499-1.339 6.751-4.018 9.758-2.624 2.952-6.341 4.783-11.152 5.494 11.207 1.312 16.81 6.15 16.81 14.514Z"/>
      </mask>
      <path fill="#121234" d="M205.086 135.666c0 4.647-2.269 8.583-6.806 11.808-4.483 3.171-10.086 4.756-16.81 4.756-1.476 0-2.487-.027-3.034-.082-2.733 0-5.303-.383-7.708-1.148-3.171-.929-5.549-2.351-7.134-4.264-2.023-2.515-3.034-5.713-3.034-9.594 0-2.023.711-3.772 2.132-5.248 1.476-1.476 3.198-2.214 5.166-2.214 2.023 0 3.772.738 5.248 2.214 1.476 1.476 2.214 3.225 2.214 5.248s-.738 3.745-2.214 5.166c-1.476 1.421-3.28 2.132-5.412 2.132 2.023 2.187 5.521 3.28 10.496 3.28 3.444 0 6.068-1.121 7.872-3.362 1.804-2.296 2.706-5.631 2.706-10.004 0-3.991-.629-6.779-1.886-8.364-1.257-1.585-3.335-2.378-6.232-2.378-.383 0-1.367.109-2.952.328-1.585.219-3.034.328-4.346.328-.547 0-1.066-.246-1.558-.738-.437-.492-.656-1.148-.656-1.968 0-.765.219-1.394.656-1.886.492-.547 1.011-.82 1.558-.82.984 0 2.323.109 4.018.328 1.695.219 2.788.328 3.28.328 4.592 0 6.888-4.592 6.888-13.776 0-3.444-.738-6.068-2.214-7.872-1.421-1.859-3.444-2.788-6.068-2.788-4.975 0-8.501 1.613-10.578 4.838.164-.055.465-.082.902-.082 2.077 0 3.827.738 5.248 2.214 1.476 1.476 2.214 3.225 2.214 5.248s-.738 3.745-2.214 5.166c-1.421 1.421-3.171 2.132-5.248 2.132-1.968 0-3.69-.711-5.166-2.132-1.421-1.476-2.132-3.225-2.132-5.248 0-11.097 6.943-16.646 20.828-16.646 6.341 0 11.289 1.503 14.842 4.51 3.663 3.007 5.494 6.615 5.494 10.824 0 3.499-1.339 6.751-4.018 9.758-2.624 2.952-6.341 4.783-11.152 5.494 11.207 1.312 16.81 6.15 16.81 14.514Z" shape-rendering="crispEdges"/>
      <path fill="#fff" fill-opacity=".5" d="m198.28 147.474.577.816.002-.001-.579-.815Zm-19.844 4.674.1-.995-.05-.005h-.05v1ZM170.728 151l.303-.953-.011-.003-.011-.004-.281.96Zm-7.134-4.264-.779.627.004.005.005.006.77-.638Zm-.902-14.842-.707-.707-.007.007-.006.006.72.694Zm10.414 0-.707.707.707-.707Zm0 10.414-.694-.72.694.72Zm-5.412 2.132v-1h-2.287l1.553 1.679.734-.679Zm18.368-.082.779.627.007-.009-.786-.618Zm.82-18.368-.783.621.783-.621Zm-9.184-2.05-.137-.991.137.991Zm-5.904-.41-.747.664.019.022.021.021.707-.707Zm0-3.854-.743-.669-.004.005.747.664Zm5.576-.492.128-.992-.128.992Zm7.954-21.32-.794.607.01.013.01.013.774-.633Zm-16.646 2.05-.841-.541-1.538 2.388 2.695-.898-.316-.949Zm6.15 2.132-.72.694.006.006.007.007.707-.707Zm0 10.414-.694-.72-.006.006-.007.007.707.707Zm-10.414 0-.72.694.013.013.013.013.694-.72Zm33.538-17.384-.646.763.006.005.006.005.634-.773Zm1.476 20.582-.747-.665v.001l.747.664Zm-11.152 5.494-.146-.989.03 1.982.116-.993Zm15.81 14.514c0 4.256-2.053 7.913-6.385 10.993l1.158 1.63c4.742-3.371 7.227-7.586 7.227-12.623h-2Zm-6.383 10.992c-4.279 3.026-9.669 4.572-16.233 4.572v2c6.884 0 12.701-1.625 17.387-4.94l-1.154-1.632Zm-16.233 4.572c-1.48 0-2.444-.028-2.934-.077l-.2 1.99c.604.06 1.662.087 3.134.087v-2Zm-3.034-.082c-2.639 0-5.105-.369-7.405-1.101l-.606 1.906c2.511.799 5.183 1.195 8.011 1.195v-2Zm-7.427-1.108c-3.041-.891-5.223-2.225-6.645-3.942l-1.54 1.276c1.748 2.11 4.323 3.618 7.623 4.586l.562-1.92Zm-6.636-3.931c-1.852-2.303-2.813-5.266-2.813-8.967h-2c0 4.061 1.062 7.494 3.255 10.221l1.558-1.254Zm-2.813-8.967c0-1.76.608-3.262 1.852-4.554l-1.44-1.388c-1.598 1.66-2.412 3.657-2.412 5.942h2Zm1.839-4.541c1.301-1.301 2.774-1.921 4.459-1.921v-2c-2.251 0-4.222.856-5.873 2.507l1.414 1.414Zm4.459-1.921c1.748 0 3.246.626 4.541 1.921l1.414-1.414c-1.657-1.657-3.658-2.507-5.955-2.507v2Zm4.541 1.921c1.295 1.295 1.921 2.793 1.921 4.541h2c0-2.297-.85-4.298-2.507-5.955l-1.414 1.414Zm1.921 4.541c0 1.747-.625 3.21-1.908 4.446l1.388 1.44c1.669-1.607 2.52-3.588 2.52-5.886h-2Zm-1.908 4.446c-1.281 1.234-2.833 1.852-4.718 1.852v2c2.379 0 4.435-.803 6.106-2.412l-1.388-1.44Zm-5.452 3.531c2.306 2.493 6.155 3.601 11.23 3.601v-2c-4.874 0-8.023-1.079-9.762-2.959l-1.468 1.358Zm11.23 3.601c3.68 0 6.619-1.211 8.651-3.735l-1.558-1.254c-1.576 1.958-3.885 2.989-7.093 2.989v2Zm8.658-3.744c1.997-2.541 2.92-6.131 2.92-10.622h-2c0 4.256-.881 7.335-2.492 9.386l1.572 1.236Zm2.92-10.622c0-4.03-.622-7.118-2.103-8.985l-1.566 1.242c1.033 1.304 1.669 3.792 1.669 7.743h2Zm-2.103-8.985c-1.518-1.915-3.95-2.757-7.015-2.757v2c2.73 0 4.453.744 5.449 1.999l1.566-1.242Zm-7.015-2.757c-.467 0-1.531.123-3.089.337l.274 1.982c1.613-.223 2.517-.319 2.815-.319v-2Zm-3.089.337c-1.549.214-2.951.319-4.209.319v2c1.366 0 2.861-.114 4.483-.337l-.274-1.982Zm-4.209.319c-.214 0-.493-.087-.851-.445l-1.414 1.414c.626.626 1.386 1.031 2.265 1.031v-2Zm-.811-.402c-.237-.267-.403-.666-.403-1.304h-2c0 1.002.271 1.915.909 2.632l1.494-1.328Zm-.403-1.304c0-.563.155-.942.403-1.222l-1.494-1.328c-.627.704-.909 1.582-.909 2.55h2Zm.399-1.217c.371-.412.64-.489.815-.489v-2c-.919 0-1.688.47-2.301 1.151l1.486 1.338Zm.815-.489c.921 0 2.212.103 3.89.32l.256-1.984c-1.711-.221-3.099-.336-4.146-.336v2Zm3.89.32c1.677.216 2.839.336 3.408.336v-2c-.415 0-1.44-.099-3.152-.32l-.256 1.984Zm3.408.336c1.323 0 2.525-.334 3.568-1.029 1.037-.691 1.859-1.701 2.492-2.968 1.253-2.505 1.828-6.136 1.828-10.779h-2c0 4.541-.573 7.798-1.616 9.885-.515 1.029-1.128 1.741-1.813 2.198-.679.453-1.486.693-2.459.693v2Zm7.888-14.776c0-3.568-.762-6.455-2.44-8.505l-1.548 1.266c1.274 1.558 1.988 3.919 1.988 7.239h2Zm-2.42-8.48c-1.635-2.138-3.97-3.18-6.862-3.18v2c2.356 0 4.066.817 5.274 2.395l1.588-1.215Zm-6.862-3.18c-5.201 0-9.103 1.701-11.419 5.297l1.682 1.082c1.839-2.855 4.989-4.379 9.737-4.379v-2Zm-10.262 6.787c-.026.008.002-.004.123-.015.11-.01.262-.016.463-.016v-2c-.43 0-.882.021-1.218.133l.632 1.898Zm.586-.031c1.81 0 3.298.63 4.528 1.908l1.44-1.388c-1.612-1.674-3.623-2.52-5.968-2.52v2Zm4.541 1.921c1.295 1.295 1.921 2.793 1.921 4.541h2c0-2.297-.85-4.298-2.507-5.955l-1.414 1.414Zm1.921 4.541c0 1.747-.625 3.21-1.908 4.446l1.388 1.44c1.669-1.607 2.52-3.588 2.52-5.886h-2Zm-1.921 4.459c-1.227 1.227-2.719 1.839-4.541 1.839v2c2.333 0 4.339-.809 5.955-2.425l-1.414-1.414Zm-4.541 1.839c-1.698 0-3.174-.602-4.472-1.852l-1.388 1.44c1.654 1.593 3.622 2.412 5.86 2.412v-2Zm-4.446-1.826c-1.244-1.292-1.852-2.794-1.852-4.554h-2c0 2.285.814 4.282 2.412 5.942l1.44-1.388Zm-1.852-4.554c0-5.328 1.655-9.165 4.831-11.703 3.219-2.573 8.161-3.943 14.997-3.943v-2c-7.049 0-12.521 1.404-16.245 4.38-3.767 3.01-5.583 7.496-5.583 13.266h2Zm19.828-15.646c6.191 0 10.879 1.467 14.196 4.273l1.292-1.526c-3.79-3.207-8.996-4.747-15.488-4.747v2Zm14.208 4.283c3.464 2.844 5.128 6.181 5.128 10.051h2c0-4.549-1.998-8.427-5.86-11.597l-1.268 1.546Zm5.128 10.051c0 3.217-1.223 6.24-3.765 9.093l1.494 1.33c2.815-3.16 4.271-6.642 4.271-10.423h-2Zm-3.765 9.094c-2.435 2.738-5.917 4.484-10.551 5.169l.292 1.978c4.988-.737 8.94-2.653 11.753-5.819l-1.494-1.328Zm-10.521 7.151c5.502.644 9.48 2.14 12.07 4.376 2.552 2.204 3.856 5.212 3.856 9.145h2c0-4.431-1.497-8.024-4.549-10.658-3.013-2.602-7.44-4.181-13.145-4.849l-.232 1.986Z" mask="url(#h)"/>
    </g>
  </g>
  <defs>
    <filter id="a" width="308" height="198.909" x="0" y="0" color-interpolation-filters="sRGB" filterUnits="userSpaceOnUse">
      <feFlood flood-opacity="0" result="BackgroundImageFix"/>
      <feColorMatrix in="SourceAlpha" result="hardAlpha" values="0 0 0 0 0 0 0 0 0 0 0 0 0 0 0 0 0 0 127 0"/>
      <feOffset dy="4"/>
      <feGaussianBlur stdDeviation="2"/>
      <feComposite in2="hardAlpha" operator="out"/>
      <feColorMatrix values="0 0 0 0 0 0 0 0 0 0 0 0 0 0 0 0 0 0 0.25 0"/>
      <feBlend in2="BackgroundImageFix" result="effect1_dropShadow_216_5091"/>
      <feBlend in="SourceGraphic" in2="effect1_dropShadow_216_5091" result="shape"/>
    </filter>
    <filter id="c" width="267.273" height="162.182" x="20.363" y="16.364" color-interpolation-filters="sRGB" filterUnits="userSpaceOnUse">
      <feFlood flood-opacity="0" result="BackgroundImageFix"/>
      <feBlend in="SourceGraphic" in2="BackgroundImageFix" result="shape"/>
      <feColorMatrix in="SourceAlpha" result="hardAlpha" values="0 0 0 0 0 0 0 0 0 0 0 0 0 0 0 0 0 0 127 0"/>
      <feOffset dy="4"/>
      <feGaussianBlur stdDeviation="2"/>
      <feComposite in2="hardAlpha" k2="-1" k3="1" operator="arithmetic"/>
      <feColorMatrix values="0 0 0 0 0 0 0 0 0 0 0 0 0 0 0 0 0 0 0.25 0"/>
      <feBlend in2="shape" result="effect1_innerShadow_216_5091"/>
    </filter>
    <filter id="e" width="43.506" height="62.038" x="82.23" y="40.192" color-interpolation-filters="sRGB" filterUnits="userSpaceOnUse">
      <feFlood flood-opacity="0" result="BackgroundImageFix"/>
      <feColorMatrix in="SourceAlpha" result="hardAlpha" values="0 0 0 0 0 0 0 0 0 0 0 0 0 0 0 0 0 0 127 0"/>
      <feOffset dy="4"/>
      <feGaussianBlur stdDeviation="2"/>
      <feComposite in2="hardAlpha" operator="out"/>
      <feColorMatrix values="0 0 0 0 0 0 0 0 0 0 0 0 0 0 0 0 0 0 0.25 0"/>
      <feBlend in2="BackgroundImageFix" result="effect1_dropShadow_216_5091"/>
      <feBlend in="SourceGraphic" in2="effect1_dropShadow_216_5091" result="shape"/>
    </filter>
    <filter id="g" width="52.526" height="69.664" x="156.56" y="90.566" color-interpolation-filters="sRGB" filterUnits="userSpaceOnUse">
      <feFlood flood-opacity="0" result="BackgroundImageFix"/>
      <feColorMatrix in="SourceAlpha" result="hardAlpha" values="0 0 0 0 0 0 0 0 0 0 0 0 0 0 0 0 0 0 127 0"/>
      <feOffset dy="4"/>
      <feGaussianBlur stdDeviation="2"/>
      <feComposite in2="hardAlpha" operator="out"/>
      <feColorMatrix values="0 0 0 0 0 0 0 0 0 0 0 0 0 0 0 0 0 0 0.25 0"/>
      <feBlend in2="BackgroundImageFix" result="effect1_dropShadow_216_5091"/>
      <feBlend in="SourceGraphic" in2="effect1_dropShadow_216_5091" result="shape"/>
    </filter>
    <linearGradient id="b" x1="204.781" x2="78.219" y1="196.094" y2="-22.656" gradientUnits="userSpaceOnUse">
      <stop offset=".5" stop-color="#121335"/>
      <stop offset="1" stop-color="#00B2FF"/>
    </linearGradient>
    <linearGradient id="d" x1="85.25" x2="196.187" y1="-4.687" y2="178.125" gradientUnits="userSpaceOnUse">
      <stop offset=".5" stop-color="#121234"/>
      <stop offset="1" stop-color="#00B2FF"/>
    </linearGradient>
  </defs>
</svg>
