<svg xmlns="http://www.w3.org/2000/svg" width="104" height="70" fill="none" viewBox="0 0 104 70">
  <g filter="url(#a)">
    <ellipse cx="52" cy="30.546" fill="url(#b)" rx="48" ry="30.546"/>
    <g filter="url(#c)">
      <path fill="url(#d)" d="M94.764 30.546c0 13.977-19.146 25.309-42.764 25.309-23.618 0-42.764-11.332-42.764-25.31C9.236 16.569 28.382 5.236 52 5.236c23.618 0 42.764 11.332 42.764 25.31Z"/>
    </g>
    <g filter="url(#e)">
      <mask id="f" width="16" height="23" x="27" y="10" fill="#000" maskUnits="userSpaceOnUse">
        <path fill="#fff" d="M27 10h16v23H27z"/>
        <path d="M39.94 25.81h1.5c-.18 1.92-.73 3.34-1.65 4.26-.9.92-2.21 1.38-3.93 1.38-1.88 0-3.24-.35-4.08-1.05-.32-.26-.59-.63-.81-1.11-.24-.62-.36-1.35-.36-2.19v-8.04h-2.16v-1.8h.36c1.74 0 3.15-.66 4.23-1.98.76-.9 1.3-2.1 1.62-3.6h1.5v5.58h4.26v1.8h-4.26v8.01c0 .76.15 1.33.45 1.71.32.38.72.57 1.2.57 1.12 0 1.83-1.18 2.13-3.54Z"/>
      </mask>
      <path fill="#00B2FF" d="M39.94 25.81h1.5c-.18 1.92-.73 3.34-1.65 4.26-.9.92-2.21 1.38-3.93 1.38-1.88 0-3.24-.35-4.08-1.05-.32-.26-.59-.63-.81-1.11-.24-.62-.36-1.35-.36-2.19v-8.04h-2.16v-1.8h.36c1.74 0 3.15-.66 4.23-1.98.76-.9 1.3-2.1 1.62-3.6h1.5v5.58h4.26v1.8h-4.26v8.01c0 .76.15 1.33.45 1.71.32.38.72.57 1.2.57 1.12 0 1.83-1.18 2.13-3.54Z" shape-rendering="crispEdges"/>
      <path fill="#fff" fill-opacity=".5" d="M39.94 25.81v-1h-.88l-.112.874.992.126Zm1.5 0 .996.093.102-1.093H41.44v1Zm-1.65 4.26-.707-.707-.008.008.715.699Zm-8.01.33.64-.768-.01-.008-.63.776Zm-.81-1.11-.933.361.011.028.013.028.909-.417Zm-.36-10.23h1v-1h-1v1Zm-2.16 0h-1v1h1v-1Zm0-1.8v-1h-1v1h1Zm4.59-1.98-.764-.645-.005.006-.005.006.774.633Zm1.62-3.6v-1h-.81l-.168.791.978.209Zm1.5 0h1v-1h-1v1Zm0 5.58h-1v1h1v-1Zm4.26 0h1v-1h-1v1Zm0 1.8v1h1v-1h-1Zm-4.26 0v-1h-1v1h1Zm.45 9.72-.785.62.01.012.01.012.765-.644Zm3.33-1.97h1.5v-2h-1.5v2Zm.504-1.093c-.168 1.796-.67 2.954-1.361 3.646l1.414 1.414c1.148-1.148 1.747-2.83 1.939-4.874l-1.992-.186Zm-1.369 3.654c-.655.67-1.67 1.079-3.215 1.079v2c1.895 0 3.5-.51 4.645-1.68l-1.43-1.4ZM35.86 30.45c-1.8 0-2.87-.343-3.44-.818l-1.28 1.536c1.11.925 2.76 1.282 4.72 1.282v-2Zm-3.45-.826c-.172-.14-.357-.372-.53-.75l-1.82.833c.268.581.622 1.089 1.09 1.47l1.26-1.553Zm-.507-.695c-.186-.479-.293-1.081-.293-1.829h-2c0 .932.133 1.79.427 2.551l1.866-.722ZM31.61 27.1v-8.04h-2v8.04h2Zm-1-9.04h-2.16v2h2.16v-2Zm-1.16 1v-1.8h-2v1.8h2Zm-1-.8h.36v-2h-.36v2Zm.36 0c2.033 0 3.73-.79 5.004-2.347l-1.548-1.266c-.886 1.082-2.009 1.613-3.456 1.613v2Zm4.994-2.335c.893-1.058 1.49-2.423 1.834-4.036l-1.956-.418c-.296 1.386-.78 2.422-1.406 3.164l1.528 1.29Zm.856-3.245h1.5v-2h-1.5v2Zm.5-1v5.58h2v-5.58h-2Zm1 6.58h4.26v-2h-4.26v2Zm3.26-1v1.8h2v-1.8h-2Zm1 .8h-4.26v2h4.26v-2Zm-5.26 1v8.01h2v-8.01h-2Zm0 8.01c0 .865.166 1.697.665 2.33l1.57-1.24c-.101-.128-.235-.435-.235-1.09h-2Zm.685 2.354c.502.597 1.178.926 1.965.926v-2c-.173 0-.297-.05-.435-.214l-1.53 1.288Zm1.965.926c.995 0 1.742-.559 2.23-1.37.46-.765.735-1.812.892-3.044l-1.984-.252c-.143 1.128-.373 1.851-.622 2.265-.223.37-.391.401-.516.401v2Z" mask="url(#f)"/>
    </g>
    <g filter="url(#g)">
      <mask id="h" width="19" height="26" x="54" y="23" fill="#000" maskUnits="userSpaceOnUse">
        <path fill="#fff" d="M54 23h19v26H54z"/>
        <path d="M71.69 41.39c0 1.7-.83 3.14-2.49 4.32-1.64 1.16-3.69 1.74-6.15 1.74-.54 0-.91-.01-1.11-.03-1 0-1.94-.14-2.82-.42-1.16-.34-2.03-.86-2.61-1.56-.74-.92-1.11-2.09-1.11-3.51 0-.74.26-1.38.78-1.92.54-.54 1.17-.81 1.89-.81.74 0 1.38.27 1.92.81s.81 1.18.81 1.92-.27 1.37-.81 1.89c-.54.52-1.2.78-1.98.78.74.8 2.02 1.2 3.84 1.2 1.26 0 2.22-.41 2.88-1.23.66-.84.99-2.06.99-3.66 0-1.46-.23-2.48-.69-3.06-.46-.58-1.22-.87-2.28-.87-.14 0-.5.04-1.08.12-.58.08-1.11.12-1.59.12-.2 0-.39-.09-.57-.27-.16-.18-.24-.42-.24-.72 0-.28.08-.51.24-.69.18-.2.37-.3.57-.3.36 0 .85.04 1.47.12.62.08 1.02.12 1.2.12 1.68 0 2.52-1.68 2.52-5.04 0-1.26-.27-2.22-.81-2.88-.52-.68-1.26-1.02-2.22-1.02-1.82 0-3.11.59-3.87 1.77.06-.02.17-.03.33-.03.76 0 1.4.27 1.92.81.54.54.81 1.18.81 1.92s-.27 1.37-.81 1.89c-.52.52-1.16.78-1.92.78-.72 0-1.35-.26-1.89-.78-.52-.54-.78-1.18-.78-1.92 0-4.06 2.54-6.09 7.62-6.09 2.32 0 4.13.55 5.43 1.65 1.34 1.1 2.01 2.42 2.01 3.96 0 1.28-.49 2.47-1.47 3.57-.96 1.08-2.32 1.75-4.08 2.01 4.1.48 6.15 2.25 6.15 5.31Z"/>
      </mask>
      <path fill="#121234" d="M71.69 41.39c0 1.7-.83 3.14-2.49 4.32-1.64 1.16-3.69 1.74-6.15 1.74-.54 0-.91-.01-1.11-.03-1 0-1.94-.14-2.82-.42-1.16-.34-2.03-.86-2.61-1.56-.74-.92-1.11-2.09-1.11-3.51 0-.74.26-1.38.78-1.92.54-.54 1.17-.81 1.89-.81.74 0 1.38.27 1.92.81s.81 1.18.81 1.92-.27 1.37-.81 1.89c-.54.52-1.2.78-1.98.78.74.8 2.02 1.2 3.84 1.2 1.26 0 2.22-.41 2.88-1.23.66-.84.99-2.06.99-3.66 0-1.46-.23-2.48-.69-3.06-.46-.58-1.22-.87-2.28-.87-.14 0-.5.04-1.08.12-.58.08-1.11.12-1.59.12-.2 0-.39-.09-.57-.27-.16-.18-.24-.42-.24-.72 0-.28.08-.51.24-.69.18-.2.37-.3.57-.3.36 0 .85.04 1.47.12.62.08 1.02.12 1.2.12 1.68 0 2.52-1.68 2.52-5.04 0-1.26-.27-2.22-.81-2.88-.52-.68-1.26-1.02-2.22-1.02-1.82 0-3.11.59-3.87 1.77.06-.02.17-.03.33-.03.76 0 1.4.27 1.92.81.54.54.81 1.18.81 1.92s-.27 1.37-.81 1.89c-.52.52-1.16.78-1.92.78-.72 0-1.35-.26-1.89-.78-.52-.54-.78-1.18-.78-1.92 0-4.06 2.54-6.09 7.62-6.09 2.32 0 4.13.55 5.43 1.65 1.34 1.1 2.01 2.42 2.01 3.96 0 1.28-.49 2.47-1.47 3.57-.96 1.08-2.32 1.75-4.08 2.01 4.1.48 6.15 2.25 6.15 5.31Z" shape-rendering="crispEdges"/>
      <path fill="#fff" fill-opacity=".5" d="m69.2 45.71.578.816h.001l-.579-.816Zm-7.26 1.71.1-.995-.05-.005h-.05v1ZM59.12 47l.303-.953-.01-.003-.012-.004-.281.96Zm-2.61-1.56-.78.627.005.005.005.006.77-.638Zm-.33-5.43-.707-.707-.007.007-.006.006.72.694Zm3.81 0-.707.707.707-.707Zm0 3.81-.694-.72.694.72Zm-1.98.78v-1h-2.287l1.553 1.679.734-.679Zm6.72-.03.78.627.006-.01-.786-.617Zm.3-6.72-.784.621.784-.621Zm-3.36-.75-.137-.99.137.99Zm-2.16-.15-.747.664.02.022.02.021.707-.707Zm0-1.41-.743-.669-.004.005.747.664Zm2.04-.18.128-.992-.128.992Zm2.91-7.8-.794.607.01.013.01.013.774-.633Zm-6.09.75-.84-.541-1.54 2.388 2.696-.898-.316-.949Zm2.25.78-.72.694.006.006.007.007.707-.707Zm0 3.81-.694-.72-.006.006-.007.007.707.707Zm-3.81 0-.72.694.013.013.013.013.694-.72Zm12.27-6.36-.646.763.006.005.005.005.635-.773Zm.54 7.53-.747-.665.747.665Zm-4.08 2.01-.146-.99.03 1.983.116-.993Zm5.15 5.31c0 1.31-.614 2.47-2.07 3.505l1.16 1.63c1.864-1.325 2.91-3.045 2.91-5.135h-2Zm-2.067 3.504c-1.437 1.016-3.273 1.556-5.573 1.556v2c2.62 0 4.884-.62 6.728-1.924l-1.156-1.632ZM63.05 46.45c-.544 0-.867-.01-1.01-.025l-.2 1.99c.257.026.674.035 1.21.035v-2Zm-1.11-.03a8.25 8.25 0 0 1-2.517-.373l-.606 1.906c.986.314 2.029.467 3.123.467v-2Zm-2.539-.38c-1.03-.302-1.704-.735-2.121-1.238l-1.54 1.276c.743.897 1.81 1.504 3.099 1.882l.562-1.92Zm-2.112-1.227c-.57-.708-.889-1.643-.889-2.883h-2c0 1.6.42 3.005 1.33 4.137l1.56-1.254ZM56.4 41.93c0-.478.157-.87.5-1.226l-1.44-1.388a3.673 3.673 0 0 0-1.06 2.614h2Zm.487-1.213c.365-.365.746-.517 1.183-.517v-2c-1.003 0-1.882.388-2.597 1.103l1.414 1.414Zm1.183-.517c.465 0 .854.158 1.213.517l1.414-1.414c-.72-.72-1.612-1.103-2.627-1.103v2Zm1.213.517c.36.36.517.748.517 1.213h2c0-1.015-.382-1.906-1.103-2.627l-1.414 1.414Zm.517 1.213c0 .464-.156.835-.504 1.17l1.388 1.44a3.525 3.525 0 0 0 1.116-2.61h-2Zm-.504 1.17c-.345.332-.753.5-1.286.5v2c1.027 0 1.94-.352 2.674-1.06l-1.388-1.44Zm-2.02 2.179c1.023 1.107 2.654 1.521 4.574 1.521v-2c-1.72 0-2.65-.386-3.106-.879l-1.468 1.358ZM61.85 46.8c1.496 0 2.771-.5 3.659-1.603l-1.558-1.254c-.432.537-1.078.857-2.101.857v2Zm3.666-1.612c.853-1.085 1.204-2.56 1.204-4.278h-2c0 1.483-.309 2.447-.776 3.042l1.572 1.236Zm1.204-4.278c0-1.5-.223-2.82-.906-3.681l-1.567 1.242c.236.299.473 1.019.473 2.439h2Zm-.906-3.681c-.722-.91-1.837-1.249-3.064-1.249v2c.893 0 1.298.241 1.496.491l1.568-1.242ZM62.75 35.98c-.225 0-.664.053-1.217.13l.274 1.98a27.179 27.179 0 0 1 .877-.106l.066-.004v-2Zm-1.217.13c-.544.074-1.027.11-1.453.11v2c.534 0 1.11-.044 1.727-.13l-.274-1.98Zm-1.453.11c.056 0 .104.014.136.029.027.013.027.02.001-.006l-1.414 1.414c.314.314.744.563 1.277.563v-2Zm.177.066a.136.136 0 0 1 .016.022l.006.01a.313.313 0 0 1-.009-.088h-2c0 .482.133.98.493 1.384l1.494-1.328Zm.013-.056c0-.045.006-.06.005-.054a.101.101 0 0 1-.017.028l-1.495-1.328c-.35.392-.493.871-.493 1.354h2Zm-.017-.021c.03-.034.032-.026 0-.01a.38.38 0 0 1-.173.041v-2c-.572 0-1.012.296-1.313.631l1.486 1.338Zm-.173.031c.297 0 .739.034 1.342.112l.256-1.984a13.104 13.104 0 0 0-1.598-.128v2Zm1.342.112c.602.078 1.07.128 1.328.128v-2c-.103 0-.434-.03-1.072-.112l-.256 1.984Zm1.328.128a2.94 2.94 0 0 0 1.657-.483c.49-.327.858-.791 1.127-1.33.525-1.049.736-2.496.736-4.227h-2c0 1.629-.209 2.702-.524 3.333-.151.301-.309.467-.448.56a.945.945 0 0 1-.548.147v2Zm3.52-6.04c0-1.384-.294-2.607-1.036-3.513l-1.548 1.266c.338.414.584 1.111.584 2.247h2Zm-1.016-3.488c-.734-.96-1.786-1.412-3.014-1.412v2c.692 0 1.12.227 1.426.627l1.588-1.215ZM62.24 25.54c-2.046 0-3.713.679-4.71 2.229l1.68 1.083c.523-.81 1.436-1.312 3.03-1.312v-2Zm-3.554 3.719a.772.772 0 0 1-.088.023.025.025 0 0 0-.012.002h.002a2.054 2.054 0 0 1 .112-.003V27.28c-.152 0-.414.004-.646.081l.632 1.898Zm.014.021c.492 0 .871.162 1.2.504l1.44-1.388a3.56 3.56 0 0 0-2.64-1.116v2Zm1.213.517c.36.36.517.748.517 1.213h2c0-1.015-.382-1.906-1.103-2.627l-1.414 1.414Zm.517 1.213c0 .464-.157.835-.504 1.17l1.388 1.44a3.525 3.525 0 0 0 1.116-2.61h-2Zm-.517 1.183c-.326.326-.708.487-1.213.487v2c1.015 0 1.913-.358 2.627-1.073l-1.414-1.414Zm-1.213.487c-.45 0-.834-.152-1.196-.5l-1.388 1.44c.718.692 1.594 1.06 2.584 1.06v-2Zm-1.17-.474a1.677 1.677 0 0 1-.5-1.226h-2c0 1.002.363 1.89 1.06 2.614l1.44-1.388Zm-.5-1.226c0-1.809.555-3.007 1.53-3.786 1.017-.813 2.657-1.304 5.09-1.304v-2c-2.647 0-4.817.524-6.34 1.741-1.565 1.251-2.28 3.098-2.28 5.349h2Zm6.62-5.09c2.17 0 3.72.514 4.784 1.413l1.292-1.526c-1.537-1.3-3.605-1.887-6.076-1.887v2Zm4.795 1.423c1.142.937 1.645 1.986 1.645 3.187h2c0-1.88-.837-3.47-2.376-4.733l-1.269 1.546ZM70.09 30.5c0 .998-.374 1.959-1.217 2.905l1.494 1.33c1.117-1.254 1.723-2.673 1.723-4.235h-2Zm-1.217 2.906c-.77.866-1.896 1.45-3.48 1.685l.293 1.978c1.937-.286 3.532-1.041 4.681-2.335l-1.494-1.328Zm-3.45 3.667c1.95.228 3.263.75 4.076 1.451.775.67 1.191 1.584 1.191 2.866h2c0-1.779-.609-3.279-1.884-4.38-1.237-1.067-2.998-1.671-5.15-1.923l-.232 1.986Z" mask="url(#h)"/>
    </g>
  </g>
  <defs>
    <filter id="a" width="104" height="69.091" x="0" y="0" color-interpolation-filters="sRGB" filterUnits="userSpaceOnUse">
      <feFlood flood-opacity="0" result="BackgroundImageFix"/>
      <feColorMatrix in="SourceAlpha" result="hardAlpha" values="0 0 0 0 0 0 0 0 0 0 0 0 0 0 0 0 0 0 127 0"/>
      <feOffset dy="4"/>
      <feGaussianBlur stdDeviation="2"/>
      <feComposite in2="hardAlpha" operator="out"/>
      <feColorMatrix values="0 0 0 0 0 0 0 0 0 0 0 0 0 0 0 0 0 0 0.25 0"/>
      <feBlend in2="BackgroundImageFix" result="effect1_dropShadow_216_5091"/>
      <feBlend in="SourceGraphic" in2="effect1_dropShadow_216_5091" result="shape"/>
    </filter>
    <filter id="c" width="85.527" height="54.618" x="9.236" y="5.236" color-interpolation-filters="sRGB" filterUnits="userSpaceOnUse">
      <feFlood flood-opacity="0" result="BackgroundImageFix"/>
      <feBlend in="SourceGraphic" in2="BackgroundImageFix" result="shape"/>
      <feColorMatrix in="SourceAlpha" result="hardAlpha" values="0 0 0 0 0 0 0 0 0 0 0 0 0 0 0 0 0 0 127 0"/>
      <feOffset dy="4"/>
      <feGaussianBlur stdDeviation="2"/>
      <feComposite in2="hardAlpha" k2="-1" k3="1" operator="arithmetic"/>
      <feColorMatrix values="0 0 0 0 0 0 0 0 0 0 0 0 0 0 0 0 0 0 0.25 0"/>
      <feBlend in2="shape" result="effect1_innerShadow_216_5091"/>
    </filter>
    <filter id="e" width="20.99" height="27.77" x="24.45" y="11.68" color-interpolation-filters="sRGB" filterUnits="userSpaceOnUse">
      <feFlood flood-opacity="0" result="BackgroundImageFix"/>
      <feColorMatrix in="SourceAlpha" result="hardAlpha" values="0 0 0 0 0 0 0 0 0 0 0 0 0 0 0 0 0 0 127 0"/>
      <feOffset dy="4"/>
      <feGaussianBlur stdDeviation="2"/>
      <feComposite in2="hardAlpha" operator="out"/>
      <feColorMatrix values="0 0 0 0 0 0 0 0 0 0 0 0 0 0 0 0 0 0 0.25 0"/>
      <feBlend in2="BackgroundImageFix" result="effect1_dropShadow_216_5091"/>
      <feBlend in="SourceGraphic" in2="effect1_dropShadow_216_5091" result="shape"/>
    </filter>
    <filter id="g" width="24.29" height="30.56" x="51.4" y="24.89" color-interpolation-filters="sRGB" filterUnits="userSpaceOnUse">
      <feFlood flood-opacity="0" result="BackgroundImageFix"/>
      <feColorMatrix in="SourceAlpha" result="hardAlpha" values="0 0 0 0 0 0 0 0 0 0 0 0 0 0 0 0 0 0 127 0"/>
      <feOffset dy="4"/>
      <feGaussianBlur stdDeviation="2"/>
      <feComposite in2="hardAlpha" operator="out"/>
      <feColorMatrix values="0 0 0 0 0 0 0 0 0 0 0 0 0 0 0 0 0 0 0.25 0"/>
      <feBlend in2="BackgroundImageFix" result="effect1_dropShadow_216_5091"/>
      <feBlend in="SourceGraphic" in2="effect1_dropShadow_216_5091" result="shape"/>
    </filter>
    <linearGradient id="b" x1="68.25" x2="27.75" y1="62.75" y2="-7.25" gradientUnits="userSpaceOnUse">
      <stop offset=".5" stop-color="#121335"/>
      <stop offset="1" stop-color="#00B2FF"/>
    </linearGradient>
    <linearGradient id="d" x1="30" x2="65.5" y1="-1.5" y2="57" gradientUnits="userSpaceOnUse">
      <stop offset=".5" stop-color="#121234"/>
      <stop offset="1" stop-color="#00B2FF"/>
    </linearGradient>
  </defs>
</svg>
